# xmcd
#
# Track frame offsets: 
#        150
#        11341
#        30025
#        43323
#        52624
#        64612
#        76946
#        88417
#        99229
#        114871
#        127034
#        138748
#
# Disc length: 2006 seconds
#
# Revision: 0
# Processed by: cddbd v1.5.2PL0 Copyright (c) Steve Scherf et al.
# Submitted via: ExactAudioCopy v1.0b1
#
DISCID=8c07d40c
DTITLE=The Carter Family and Johnny Cash - Keep On The Sunny Side
DYEAR=1963
DGENRE=Country
TTITLE0=Keep On The Sunny Side
TTITLE1=The Banks Of The Ohio
TTITLE2=My Clinch Mountain Home
TTITLE3=Lonesome Valley
TTITLE4=Worried Man Blues
TTITLE5=Will The Circle Be Unbroken
TTITLE6=The Wabash Cannonball
TTITLE7=Broken-Hearted Lover
TTITLE8=Brown Eyes
TTITLE9=I'm Working On A Building
TTITLE10=Gathering Flowers From The Hillside
TTITLE11=When The Roses Bloom Again
EXTD=
EXTT0=
EXTT1=
EXTT2=
EXTT3=
EXTT4=
EXTT5=
EXTT6=
EXTT7=
EXTT8=
EXTT9=
EXTT10=
EXTT11=
PLAYORDER=
